<svg width="62" height="62" viewBox="0 0 62 62" fill="none" xmlns="http://www.w3.org/2000/svg">
<path d="M24.0104 43.3564H8.06482C6.92654 43.3564 6.00623 42.4361 6.00623 41.2978V39.6364C6.00623 39.37 6.05951 39.1085 6.15638 38.8614L12.7584 22.6349C13.4075 21.0461 15.6017 20.9008 16.4493 22.3878L25.7929 38.7597C25.9722 39.0697 26.0642 39.4233 26.0642 39.7817V41.2978C26.0642 42.4361 25.1439 43.3564 24.0104 43.3564Z" fill="url(#paint0_linear)"/>
<path d="M38.503 43.3564H54.4486C55.5869 43.3564 56.5072 42.4361 56.5072 41.2978V39.6364C56.5072 39.37 56.4539 39.1085 56.357 38.8614L49.755 22.6349C49.1059 21.0461 46.9117 20.9008 46.0641 22.3878L36.7205 38.7597C36.5412 39.0697 36.4492 39.4233 36.4492 39.7817V41.2978C36.4492 42.4361 37.3695 43.3564 38.503 43.3564Z" fill="url(#paint1_linear)"/>
<path d="M38.9728 43.3564H23.0272C21.8889 43.3564 20.9686 42.4361 20.9686 41.2978V39.7091C20.9686 39.3943 21.0413 39.0891 21.1769 38.8033L29.1497 22.4944C29.9005 20.9541 32.0947 20.9541 32.8455 22.4944L40.8183 38.8033C40.9539 39.0842 41.0266 39.3943 41.0266 39.7091V41.2978C41.0277 41.5681 40.9754 41.8359 40.8727 42.0859C40.77 42.3358 40.6188 42.563 40.4279 42.7543C40.237 42.9457 40.0102 43.0974 39.7605 43.2007C39.5108 43.304 39.2431 43.357 38.9728 43.3564Z" fill="url(#paint2_linear)"/>
<path d="M48.3019 22.3248C49.3853 22.3248 50.2636 21.4465 50.2636 20.3631C50.2636 19.2797 49.3853 18.4014 48.3019 18.4014C47.2184 18.4014 46.3401 19.2797 46.3401 20.3631C46.3401 21.4465 47.2184 22.3248 48.3019 22.3248Z" fill="url(#paint3_linear)"/>
<path d="M31 22.3248C32.0834 22.3248 32.9617 21.4465 32.9617 20.3631C32.9617 19.2797 32.0834 18.4014 31 18.4014C29.9166 18.4014 29.0383 19.2797 29.0383 20.3631C29.0383 21.4465 29.9166 22.3248 31 22.3248Z" fill="url(#paint4_linear)"/>
<path d="M14.1437 22.3248C15.2272 22.3248 16.1054 21.4465 16.1054 20.3631C16.1054 19.2797 15.2272 18.4014 14.1437 18.4014C13.0603 18.4014 12.182 19.2797 12.182 20.3631C12.182 21.4465 13.0603 22.3248 14.1437 22.3248Z" fill="url(#paint5_linear)"/>
<path opacity="0.2" d="M48.3067 19.3653C48.8589 19.3653 49.3094 19.8109 49.3094 20.3583C49.3094 20.7022 49.1398 21.0122 48.8589 21.1962C48.6167 21.3512 48.4569 21.6031 48.4181 21.8889C48.3794 22.1747 48.4714 22.4605 48.6652 22.6687C48.7863 22.7995 48.8638 22.9061 48.9025 23.003L55.5433 39.2247L55.5966 39.3554C55.6353 39.4475 55.6983 39.5928 55.7031 39.6315V41.2929C55.7031 41.913 55.0347 42.6153 54.4534 42.6153H8.06484C7.47391 42.625 6.78125 41.9081 6.78125 41.3026V39.6606C6.79578 39.6122 6.84422 39.4959 6.87812 39.4184C6.90719 39.3554 6.93141 39.2925 6.95562 39.2392L13.6545 23.0078C13.703 22.8915 13.7659 22.785 13.858 22.6881C14.0517 22.475 14.1341 22.1844 14.0905 21.8986C14.0469 21.6128 13.8773 21.3609 13.6303 21.2156C13.3252 21.0315 13.1411 20.7167 13.1411 20.368C13.1411 19.8206 13.5867 19.375 14.1341 19.375C14.6814 19.375 15.127 19.8206 15.127 20.368C15.127 20.6537 15.0011 20.8669 14.8945 20.9976C14.7105 21.2205 14.633 21.5159 14.6911 21.8017C14.7444 22.0875 14.9236 22.3297 15.1803 22.4701C15.3595 22.567 15.5 22.7075 15.6017 22.8867L22.4702 34.9186C22.6445 35.2189 22.9642 35.4078 23.313 35.4078H23.342C23.7005 35.3981 24.025 35.1898 24.18 34.8653L30.0119 22.94C30.0845 22.7947 30.1766 22.6736 30.2977 22.5767C30.5156 22.3975 30.6416 22.1311 30.6464 21.8501C30.6513 21.5692 30.535 21.298 30.3267 21.109C30.1136 20.9153 29.9925 20.6537 29.9925 20.3728C29.9925 19.8255 30.4381 19.3798 30.9855 19.3798C31.5328 19.3798 31.9784 19.8255 31.9784 20.3728C31.9784 20.6537 31.8622 20.9105 31.6442 21.109C31.4359 21.298 31.3197 21.5692 31.3245 21.8501C31.3294 22.1311 31.4602 22.3975 31.6733 22.5767C31.7944 22.6736 31.8864 22.7995 31.9591 22.94L38.0283 35.3545C38.1881 35.679 38.5078 35.8873 38.8662 35.897H38.8953C39.2441 35.897 39.5638 35.7129 39.7381 35.4078L46.8875 22.8867C46.9844 22.7172 47.12 22.5815 47.2847 22.4847C47.5366 22.3394 47.7061 22.0923 47.7545 21.8065C47.803 21.5208 47.7206 21.2301 47.5366 21.0122C47.4252 20.8814 47.2895 20.6634 47.2895 20.368C47.3089 19.8109 47.7545 19.3653 48.3067 19.3653ZM48.3067 18.3965C47.786 18.3965 47.2865 18.6031 46.9179 18.9708C46.5492 19.3386 46.3414 19.8375 46.3402 20.3583C46.3402 20.8475 46.5242 21.2883 46.8197 21.6322C46.5242 21.8065 46.2578 22.0536 46.0641 22.3926L38.9147 34.9137L32.8503 22.4992C32.7147 22.2183 32.5258 21.9906 32.3127 21.8114C32.7098 21.453 32.9666 20.9347 32.9666 20.3583C32.9666 19.2733 32.085 18.3965 31.0048 18.3965C29.9198 18.3965 29.0431 19.2781 29.0431 20.3583C29.0431 20.9347 29.2998 21.453 29.697 21.8114C29.4839 21.9906 29.295 22.2183 29.1594 22.4992L23.3227 34.4294L16.4494 22.3926C16.2459 22.039 15.965 21.7775 15.6502 21.6031C15.9311 21.264 16.1055 20.833 16.1055 20.3583C16.1055 19.2733 15.2239 18.3965 14.1438 18.3965C13.0588 18.3965 12.182 19.2781 12.182 20.3583C12.182 21.0751 12.5695 21.6903 13.1363 22.0342C12.9861 22.2037 12.8553 22.4023 12.7584 22.6348L6.05953 38.8614C5.95781 39.1084 5.8125 39.37 5.8125 39.6364V41.2978C5.8125 42.4361 6.92656 43.5889 8.06484 43.5889H54.4534C55.5917 43.5889 56.6719 42.4312 56.6719 41.2978V39.6364C56.6719 39.37 56.5411 39.1084 56.4394 38.8614L49.7986 22.6348C49.7017 22.3926 49.5419 22.1844 49.3772 22.01C49.6549 21.8335 49.8833 21.5893 50.0409 21.3004C50.1985 21.0115 50.2801 20.6873 50.2781 20.3583C50.2781 19.2781 49.3917 18.3965 48.3067 18.3965Z" fill="#424242"/>
<path d="M48.4762 48.2486H13.4753C9.19341 48.2486 5.72528 44.7805 5.72528 40.4986V32.7147H56.2262V40.5034C56.2262 44.7805 52.7581 48.2486 48.4762 48.2486Z" fill="#FDD835"/>
<path d="M54.4002 23.7731L50.4622 30.8208C49.4789 31.7314 47.895 31.3972 47.3622 30.1669L42.3247 16.522C41.5981 15.0495 39.5202 15.098 38.6967 16.522L32.7437 29.4645C32.0027 30.8353 30.0312 30.8159 29.3192 29.4306L23.652 16.522C22.9013 14.9817 20.707 14.9817 19.9562 16.522L15.1173 30.1136C14.5991 31.3633 12.9958 31.7072 12.0077 30.7869L8.11812 23.7731C6.83453 22.2473 4.34968 23.2403 4.495 25.2262L5.94812 45.4198C5.93359 48.888 8.66062 51.8281 12.027 51.8281H30.8062C30.9322 51.8281 31.0581 51.8136 31.1792 51.7894C31.3003 51.8136 31.4263 51.8281 31.5522 51.8281H50.4816C53.848 51.8281 56.575 48.888 56.5653 45.4198L58.0184 25.2262C58.1686 23.2355 55.6838 22.2473 54.4002 23.7731Z" fill="url(#paint6_linear)"/>
<path d="M40.9151 17.1614C42.8145 17.1614 44.3542 15.6217 44.3542 13.7223C44.3542 11.823 42.8145 10.2833 40.9151 10.2833C39.0158 10.2833 37.4761 11.823 37.4761 13.7223C37.4761 15.6217 39.0158 17.1614 40.9151 17.1614Z" fill="url(#paint7_linear)"/>
<path d="M21.6031 17.1614C23.5025 17.1614 25.0422 15.6217 25.0422 13.7223C25.0422 11.823 23.5025 10.2833 21.6031 10.2833C19.7038 10.2833 18.1641 11.823 18.1641 13.7223C18.1641 15.6217 19.7038 17.1614 21.6031 17.1614Z" fill="url(#paint8_linear)"/>
<path d="M4.8825 25.1536C6.50898 25.1536 7.8275 23.8351 7.8275 22.2086C7.8275 20.5821 6.50898 19.2636 4.8825 19.2636C3.25602 19.2636 1.9375 20.5821 1.9375 22.2086C1.9375 23.8351 3.25602 25.1536 4.8825 25.1536Z" fill="url(#paint9_linear)"/>
<path d="M57.1175 25.1536C58.744 25.1536 60.0625 23.8351 60.0625 22.2086C60.0625 20.5821 58.744 19.2636 57.1175 19.2636C55.491 19.2636 54.1725 20.5821 54.1725 22.2086C54.1725 23.8351 55.491 25.1536 57.1175 25.1536Z" fill="url(#paint10_linear)"/>
<path opacity="0.2" d="M40.9152 11.7364C42.0098 11.7364 42.9011 12.6276 42.9011 13.7223C42.9011 14.4828 42.4748 15.1609 41.7919 15.5C41.4696 15.6587 41.2175 15.9312 41.0842 16.2648C40.9509 16.5984 40.9459 16.9696 41.0702 17.3067L46.0059 30.6706L46.035 30.7433C46.2975 31.3525 46.733 31.8713 47.2874 32.2355C47.8419 32.5997 48.491 32.7932 49.1544 32.7922C50.0117 32.7922 50.8255 32.4725 51.4552 31.8864C51.5666 31.7847 51.6586 31.6636 51.7361 31.5328L55.5772 24.6595C56.0325 24.1994 56.1294 23.497 55.8145 22.9351C55.6934 22.7123 55.6305 22.4701 55.6305 22.2134C55.6305 21.39 56.2989 20.7215 57.1223 20.7215C57.4773 20.7222 57.8204 20.8494 58.09 21.0802C58.3596 21.311 58.5382 21.6303 58.5936 21.9809C58.649 22.3315 58.5777 22.6903 58.3924 22.9931C58.2071 23.2958 57.9199 23.5225 57.5825 23.6326C56.9722 23.8312 56.5605 24.4076 56.575 25.0519V25.1487L55.1219 45.3181C55.117 45.352 55.117 45.3908 55.117 45.4247C55.1219 46.7712 54.5794 48.0839 53.6397 49.0284C52.7727 49.8955 51.6537 50.375 50.4864 50.375H31.5522C31.5377 50.375 31.5037 50.375 31.4408 50.3605C31.3536 50.3459 31.2664 50.3362 31.1792 50.3362C31.092 50.3362 31.0048 50.3459 30.9177 50.3605C30.8498 50.375 30.8208 50.375 30.8062 50.375H12.0319C10.8645 50.375 9.74562 49.8955 8.87859 49.0284C7.93406 48.0839 7.39641 46.7712 7.40125 45.4247C7.40125 45.3908 7.40125 45.352 7.39641 45.3181L5.94812 25.1826V25.0906C5.93922 24.7456 5.80749 24.415 5.57664 24.1584C5.34578 23.9018 5.03094 23.736 4.68875 23.6908C4.33004 23.6417 4.00113 23.4647 3.76259 23.1924C3.52406 22.92 3.39196 22.5706 3.39062 22.2086C3.39062 21.3851 4.05906 20.7167 4.8825 20.7167C5.12745 20.7167 5.36862 20.7771 5.58473 20.8924C5.80084 21.0077 5.98525 21.1744 6.12167 21.3779C6.2581 21.5813 6.34235 21.8152 6.36699 22.0589C6.39163 22.3026 6.35591 22.5487 6.26297 22.7753C6.13094 23.0931 6.11644 23.4476 6.22207 23.7751C6.32769 24.1026 6.54654 24.3818 6.83937 24.5626C6.87328 24.582 6.90234 24.6062 6.93141 24.6304L10.7337 31.4892C10.8064 31.6248 10.9033 31.7459 11.0147 31.8476C11.64 32.4326 12.4641 32.7581 13.3203 32.7583C14.6959 32.7583 15.9311 31.9397 16.4542 30.6658C16.4639 30.6415 16.4736 30.6173 16.4833 30.5979L21.2592 17.1856C21.4966 16.522 21.2253 15.7906 20.615 15.437C20.3125 15.2631 20.0611 15.0126 19.886 14.7108C19.7108 14.409 19.6181 14.0664 19.6172 13.7175C19.6172 12.6228 20.5084 11.7315 21.6031 11.7315C22.6978 11.7315 23.5891 12.6228 23.5891 13.7175C23.5891 14.352 23.2936 14.9333 22.7753 15.3159C22.4981 15.5205 22.3025 15.8169 22.2235 16.1522C22.1446 16.4876 22.1874 16.8401 22.3442 17.1469C22.3491 17.1565 22.3539 17.1662 22.3587 17.1711L27.9969 30.0119C28.0114 30.0409 28.0211 30.0651 28.0356 30.0942C28.3199 30.6481 28.7517 31.1127 29.2833 31.4367C29.815 31.7606 30.4258 31.9313 31.0484 31.93C32.2933 31.93 33.4364 31.247 34.0322 30.1523C34.0467 30.1233 34.0612 30.099 34.0758 30.07L39.9803 17.234C39.9852 17.2244 39.99 17.2195 39.9948 17.2098C40.4114 16.5801 40.2806 15.7373 39.6897 15.2675C39.4557 15.0825 39.2666 14.847 39.1366 14.5785C39.0066 14.3101 38.939 14.0157 38.9389 13.7175C38.9292 12.6276 39.8205 11.7364 40.9152 11.7364ZM40.9152 10.2833C39.0164 10.2833 37.4761 11.8236 37.4761 13.7223C37.4761 14.8122 37.9847 15.7809 38.7742 16.4106C38.75 16.4494 38.7209 16.4833 38.6967 16.5269L32.7437 29.4645C32.3756 30.1426 31.7072 30.4817 31.0387 30.4817C30.3558 30.4817 29.6777 30.1329 29.3144 29.4354L23.6472 16.5269C23.6423 16.5123 23.6327 16.5026 23.6278 16.493C24.0632 16.1751 24.4173 15.7589 24.6614 15.2783C24.9055 14.7977 25.0326 14.2662 25.0325 13.7272C25.0325 11.8284 23.4922 10.2881 21.5934 10.2881C19.6947 10.2881 18.1544 11.8284 18.1544 13.7272C18.1544 15.0011 18.8519 16.1151 19.8836 16.7061L15.1077 30.1184C14.9615 30.4732 14.7129 30.7765 14.3938 30.9896C14.0746 31.2026 13.6992 31.3159 13.3155 31.3148C12.8505 31.3148 12.3806 31.1501 11.998 30.7965L8.10844 23.7828C7.95344 23.5987 7.78391 23.4534 7.59984 23.342C7.78491 22.8946 7.85678 22.4085 7.80907 21.9267C7.76136 21.445 7.59555 20.9824 7.32633 20.58C7.05712 20.1776 6.69281 19.8478 6.26568 19.6199C5.83855 19.392 5.3618 19.2729 4.87766 19.2733C3.255 19.2636 1.9375 20.5811 1.9375 22.2086C1.9375 23.7004 3.05156 24.9308 4.49016 25.1245C4.49016 25.1584 4.48531 25.1875 4.49016 25.2262L5.94328 45.4198C5.93359 48.8879 8.66062 51.8281 12.027 51.8281H30.8062C30.9322 51.8281 31.0581 51.8136 31.1792 51.7894C31.3003 51.8136 31.4262 51.8281 31.5522 51.8281H50.4816C53.848 51.8281 56.575 48.8879 56.5653 45.4198L58.0184 25.2262C58.0233 25.1536 58.0184 25.0858 58.0184 25.0131C58.611 24.821 59.1276 24.4462 59.4939 23.9423C59.8603 23.4385 60.0576 22.8315 60.0577 22.2086C60.0577 20.5811 58.7402 19.2636 57.1127 19.2636C56.6003 19.2633 56.0968 19.3968 55.6519 19.6507C55.2069 19.9047 54.836 20.2704 54.5757 20.7117C54.3154 21.153 54.1749 21.6546 54.1678 22.1669C54.1608 22.6792 54.2877 23.1844 54.5358 23.6326C54.4873 23.6811 54.4389 23.7198 54.3953 23.7731L50.4573 30.8208C50.0795 31.1744 49.6097 31.339 49.1447 31.339C48.4084 31.339 47.6867 30.9225 47.3622 30.1669L42.4264 16.803C43.5647 16.2411 44.3494 15.0737 44.3494 13.7223C44.3494 11.8236 42.8139 10.2833 40.9152 10.2833Z" fill="#424242"/>
<path d="M31.2567 44.8095C34.2395 44.8095 36.6575 42.3915 36.6575 39.4087C36.6575 36.426 34.2395 34.008 31.2567 34.008C28.274 34.008 25.856 36.426 25.856 39.4087C25.856 42.3915 28.274 44.8095 31.2567 44.8095Z" fill="url(#paint11_linear)"/>
<path d="M18.1399 42.4942C19.8439 42.4942 21.2253 41.1128 21.2253 39.4087C21.2253 37.7047 19.8439 36.3233 18.1399 36.3233C16.4358 36.3233 15.0544 37.7047 15.0544 39.4087C15.0544 41.1128 16.4358 42.4942 18.1399 42.4942Z" fill="url(#paint12_linear)"/>
<path d="M44.3736 42.4942C46.0777 42.4942 47.4591 41.1128 47.4591 39.4087C47.4591 37.7047 46.0777 36.3233 44.3736 36.3233C42.6696 36.3233 41.2881 37.7047 41.2881 39.4087C41.2881 41.1128 42.6696 42.4942 44.3736 42.4942Z" fill="url(#paint13_linear)"/>
<path d="M6.05471 42.9786C7.55813 42.9786 8.77689 41.3803 8.77689 39.4087C8.77689 37.4372 7.55813 35.8389 6.05471 35.8389C4.55128 35.8389 3.33252 37.4372 3.33252 39.4087C3.33252 41.3803 4.55128 42.9786 6.05471 42.9786Z" fill="url(#paint14_linear)"/>
<path d="M56.4636 42.9786C57.967 42.9786 59.1858 41.3803 59.1858 39.4087C59.1858 37.4372 57.967 35.8389 56.4636 35.8389C54.9602 35.8389 53.7414 37.4372 53.7414 39.4087C53.7414 41.3803 54.9602 42.9786 56.4636 42.9786Z" fill="url(#paint15_linear)"/>
<path opacity="0.2" d="M6.05471 36.8076C7.00408 36.8076 7.80814 37.9992 7.80814 39.4087C7.80814 40.8183 7.00408 42.0098 6.05471 42.0098C5.10533 42.0098 4.30127 40.8183 4.30127 39.4087C4.30127 37.9992 5.10533 36.8076 6.05471 36.8076ZM6.05471 35.8389C4.55314 35.8389 3.33252 37.4373 3.33252 39.4087C3.33252 41.3801 4.5483 42.9786 6.05471 42.9786C7.56111 42.9786 8.77689 41.3801 8.77689 39.4087C8.77205 37.4373 7.55627 35.8389 6.05471 35.8389Z" fill="#424242"/>
<path opacity="0.2" d="M56.4636 36.8076C57.413 36.8076 58.217 37.9992 58.217 39.4087C58.217 40.8183 57.413 42.0098 56.4636 42.0098C55.5142 42.0098 54.7101 40.8183 54.7101 39.4087C54.7101 37.9992 55.5142 36.8076 56.4636 36.8076ZM56.4636 35.8389C54.962 35.8389 53.7414 37.4373 53.7414 39.4087C53.7414 41.3801 54.9572 42.9786 56.4636 42.9786C57.97 42.9786 59.1858 41.3801 59.1858 39.4087C59.1809 37.4373 57.9651 35.8389 56.4636 35.8389Z" fill="#424242"/>
<path opacity="0.2" d="M31.2567 34.9767C33.7028 34.9767 35.6888 36.9627 35.6888 39.4087C35.6888 41.8548 33.7028 43.8408 31.2567 43.8408C28.8106 43.8408 26.8247 41.8548 26.8247 39.4087C26.8247 36.9627 28.8155 34.9767 31.2567 34.9767ZM31.2567 34.008C28.273 34.008 25.856 36.425 25.856 39.4087C25.856 42.3925 28.273 44.8095 31.2567 44.8095C34.2405 44.8095 36.6575 42.3925 36.6575 39.4087C36.6575 36.425 34.2405 34.008 31.2567 34.008Z" fill="#424242"/>
<path opacity="0.2" d="M18.1399 37.292C19.3072 37.292 20.2566 38.2414 20.2566 39.4087C20.2566 40.5761 19.3072 41.5255 18.1399 41.5255C16.9725 41.5255 16.0231 40.5761 16.0231 39.4087C16.0231 38.2414 16.9725 37.292 18.1399 37.292ZM18.1399 36.3233C16.4349 36.3233 15.0544 37.7037 15.0544 39.4087C15.0544 41.1137 16.4349 42.4942 18.1399 42.4942C19.8449 42.4942 21.2253 41.1137 21.2253 39.4087C21.2253 37.7037 19.8449 36.3233 18.1399 36.3233Z" fill="#424242"/>
<path opacity="0.2" d="M44.3736 37.292C45.541 37.292 46.4903 38.2414 46.4903 39.4087C46.4903 40.5761 45.541 41.5255 44.3736 41.5255C43.2063 41.5255 42.2569 40.5761 42.2569 39.4087C42.2569 38.2414 43.2063 37.292 44.3736 37.292ZM44.3736 36.3233C42.6686 36.3233 41.2881 37.7037 41.2881 39.4087C41.2881 41.1137 42.6686 42.4942 44.3736 42.4942C46.0786 42.4942 47.4591 41.1137 47.4591 39.4087C47.4591 37.7037 46.0786 36.3233 44.3736 36.3233Z" fill="#424242"/>
<defs>
<linearGradient id="paint0_linear" x1="16.0362" y1="6.0547" x2="16.0362" y2="44.1799" gradientUnits="userSpaceOnUse">
<stop offset="0.058" stop-color="#FDD835"/>
<stop offset="0.756" stop-color="#F9A825"/>
</linearGradient>
<linearGradient id="paint1_linear" x1="46.4782" y1="6.0547" x2="46.4782" y2="44.1799" gradientUnits="userSpaceOnUse">
<stop offset="0.058" stop-color="#FDD835"/>
<stop offset="0.756" stop-color="#F9A825"/>
</linearGradient>
<linearGradient id="paint2_linear" x1="31" y1="6.05472" x2="31" y2="44.1799" gradientUnits="userSpaceOnUse">
<stop offset="0.058" stop-color="#FDD835"/>
<stop offset="0.756" stop-color="#F9A825"/>
</linearGradient>
<linearGradient id="paint3_linear" x1="48.3019" y1="6.05468" x2="48.3019" y2="44.1798" gradientUnits="userSpaceOnUse">
<stop offset="0.058" stop-color="#FDD835"/>
<stop offset="0.756" stop-color="#F9A825"/>
</linearGradient>
<linearGradient id="paint4_linear" x1="31" y1="6.05468" x2="31" y2="44.1798" gradientUnits="userSpaceOnUse">
<stop offset="0.058" stop-color="#FDD835"/>
<stop offset="0.756" stop-color="#F9A825"/>
</linearGradient>
<linearGradient id="paint5_linear" x1="14.1423" y1="6.05468" x2="14.1423" y2="44.1798" gradientUnits="userSpaceOnUse">
<stop offset="0.058" stop-color="#FDD835"/>
<stop offset="0.756" stop-color="#F9A825"/>
</linearGradient>
<linearGradient id="paint6_linear" x1="31.2572" y1="-1.36788" x2="31.2572" y2="51.7894" gradientUnits="userSpaceOnUse">
<stop offset="0.247" stop-color="#FFEB3B"/>
<stop offset="0.438" stop-color="#FFE639"/>
<stop offset="0.672" stop-color="#FDD734"/>
<stop offset="0.91" stop-color="#FBC02D"/>
</linearGradient>
<linearGradient id="paint7_linear" x1="40.9137" y1="9.80858" x2="40.9137" y2="51.5569" gradientUnits="userSpaceOnUse">
<stop stop-color="#FFEB3B"/>
<stop offset="1" stop-color="#FBC02D"/>
</linearGradient>
<linearGradient id="paint8_linear" x1="21.6007" y1="9.80858" x2="21.6007" y2="51.5569" gradientUnits="userSpaceOnUse">
<stop stop-color="#FFEB3B"/>
<stop offset="1" stop-color="#FBC02D"/>
</linearGradient>
<linearGradient id="paint9_linear" x1="4.88347" y1="9.80861" x2="4.88347" y2="51.5569" gradientUnits="userSpaceOnUse">
<stop stop-color="#FFEB3B"/>
<stop offset="1" stop-color="#FBC02D"/>
</linearGradient>
<linearGradient id="paint10_linear" x1="57.1175" y1="9.80861" x2="57.1175" y2="51.5569" gradientUnits="userSpaceOnUse">
<stop stop-color="#FFEB3B"/>
<stop offset="1" stop-color="#FBC02D"/>
</linearGradient>
<linearGradient id="paint11_linear" x1="27.4379" y1="35.5904" x2="35.0765" y2="43.2285" gradientUnits="userSpaceOnUse">
<stop stop-color="#29B6F6"/>
<stop offset="1" stop-color="#039BE5"/>
</linearGradient>
<linearGradient id="paint12_linear" x1="15.9582" y1="37.2271" x2="20.3229" y2="41.5918" gradientUnits="userSpaceOnUse">
<stop stop-color="#F06292"/>
<stop offset="1" stop-color="#E91E63"/>
</linearGradient>
<linearGradient id="paint13_linear" x1="42.1915" y1="37.2271" x2="46.5562" y2="41.5918" gradientUnits="userSpaceOnUse">
<stop stop-color="#F06292"/>
<stop offset="1" stop-color="#E91E63"/>
</linearGradient>
<linearGradient id="paint14_linear" x1="3.80769" y1="37.1646" x2="8.29736" y2="41.6538" gradientUnits="userSpaceOnUse">
<stop stop-color="#29B6F6"/>
<stop offset="1" stop-color="#039BE5"/>
</linearGradient>
<linearGradient id="paint15_linear" x1="54.2161" y1="37.1646" x2="58.7062" y2="41.6538" gradientUnits="userSpaceOnUse">
<stop stop-color="#29B6F6"/>
<stop offset="1" stop-color="#039BE5"/>
</linearGradient>
</defs>
</svg>
