<svg width="30" height="30" viewBox="0 0 30 30" fill="none" xmlns="http://www.w3.org/2000/svg">
<path d="M9.21198 27.9129L24.2123 12.9126L17.0874 5.78767L2.0871 20.788C1.88059 20.9948 1.7339 21.2536 1.66258 21.537L0 30L8.4614 28.3374C8.74549 28.2664 9.00537 28.1195 9.21198 27.9129ZM29.0548 8.07009C29.66 7.46469 30 6.6437 30 5.78767C30 4.93164 29.66 4.11065 29.0548 3.50526L26.4947 0.945206C25.8893 0.339991 25.0684 0 24.2123 0C23.3563 0 22.5353 0.339991 21.9299 0.945206L19.3699 3.50526L26.4947 10.6301L29.0548 8.07009Z" fill="#8B6EDD"/>
</svg>
