<svg width="47" height="49" viewBox="0 0 47 49" fill="none" xmlns="http://www.w3.org/2000/svg">
<path d="M35.25 18.375C40.7578 13.6281 42.3734 8.49844 42.8141 5.35938C44.5031 4.13437 45.5313 3.0625 45.5313 3.0625C45.5313 3.0625 46.4859 11.4078 37.8203 18.9109C26.5844 28.7109 15.4219 34.8359 15.4219 34.8359L14.4672 33.3812C17.9188 31.3141 26.5844 25.8781 35.25 18.375Z" fill="#96A7A8"/>
<path d="M14.3938 33.3813L13.5125 32.0031C31.4313 16.3844 31.7985 9.18752 31.7985 9.18752C36.425 9.26409 40.3172 7.12034 42.8141 5.28284C42.3735 8.34534 40.7578 13.475 35.25 18.2985C26.5844 25.8782 17.9188 31.3141 14.3938 33.3813" fill="#B8C2C4"/>
<path d="M9.10623 35.1422C8.44529 35.7547 8.51873 36.9031 9.32654 37.6688C10.1344 38.4344 11.3094 38.511 11.9703 37.8985C12.6312 37.286 12.5578 36.1375 11.75 35.3719C11.0156 34.6063 9.76716 34.5297 9.10623 35.1422Z" fill="#C19A61"/>
<path d="M9.47342 35.2188C8.88592 35.7547 8.95936 36.75 9.69374 37.3625C10.3547 38.0516 11.3828 38.1281 11.9703 37.5156C12.5578 36.9797 12.4844 35.9844 11.75 35.3719C11.089 34.7594 10.0609 34.6063 9.47342 35.2188Z" fill="#DBB471"/>
<path d="M7.49063 36.5969C6.82969 37.2094 6.90313 38.3578 7.71094 39.1234C8.51875 39.8891 9.69375 39.9656 10.3547 39.3531C11.0156 38.7406 10.9422 37.5922 10.1344 36.8266C9.32656 36.0609 8.15156 35.9844 7.49063 36.5969Z" fill="#C19A61"/>
<path d="M7.85782 36.5969C7.27032 37.1328 7.34376 38.1281 8.07814 38.7406C8.73907 39.4297 9.7672 39.5063 10.3547 38.8938C10.9422 38.3578 10.8688 37.3625 10.1344 36.75C9.47345 36.1375 8.44532 36.061 7.85782 36.5969Z" fill="#DBB471"/>
<path d="M5.875 38.0516C5.14062 38.6641 5.2875 39.8125 6.09531 40.5781C6.90312 41.3437 8.07812 41.4203 8.73906 40.8078C9.39999 40.1953 9.32656 39.0469 8.51874 38.2812C7.71093 37.5156 6.53593 37.3625 5.875 38.0516Z" fill="#C19A61"/>
<path d="M6.16874 38.0516C5.58124 38.5875 5.65467 39.5828 6.38905 40.1953C7.04999 40.8844 8.07811 40.9609 8.66561 40.3484C9.25311 39.8125 9.17967 38.8172 8.4453 38.2047C7.78436 37.5922 6.75624 37.5156 6.16874 38.0516Z" fill="#DBB471"/>
<path d="M4.18594 39.4297C3.525 40.1188 3.67188 41.1906 4.40625 41.9563C5.21406 42.7219 6.38906 42.7984 7.05 42.1859C7.71094 41.5734 7.6375 40.425 6.82969 39.6594C6.09531 38.8938 4.92031 38.8172 4.18594 39.4297" fill="#C19A61"/>
<path d="M4.55314 39.5063C3.96563 40.0422 4.03907 41.0375 4.77345 41.65C5.43439 42.3391 6.46251 42.4156 7.05001 41.8031C7.63751 41.2672 7.56407 40.2719 6.8297 39.6594C6.16876 38.9703 5.14064 38.8938 4.55314 39.5063" fill="#DBB471"/>
<path d="M2.20315 41.1906C4.47971 39.1234 3.45158 40.5781 4.92033 42.1094C9.17971 46.7031 16.3766 39.8891 11.5297 35.9078C8.73908 33.6109 10.7219 30.625 12.1172 29.3234C12.9985 28.5578 12.3375 29.9359 14.9078 33.075C17.4781 36.2906 16.3031 41.3438 12.925 44.3297C9.40002 47.3922 5.14065 45.4781 3.52502 43.4109C2.35002 42.0328 0.367208 42.7219 2.20315 41.1906" fill="#89664C"/>
<path d="M8.07811 44.4828C9.25311 44.4828 10.8687 44.1 12.1906 42.7984C13.7328 41.1906 14.3203 39.2 13.8797 37.2094C14.9078 39.4297 14.614 41.8031 12.925 43.4875C11.75 44.7125 10.2078 44.9422 9.10624 44.8656C8.15155 44.8656 7.19686 44.6359 6.31561 44.2531C6.90311 44.4828 7.49061 44.5594 8.07811 44.4828" fill="#DBB471"/>
<path d="M11.75 18.375C6.24218 13.5516 4.62655 8.42188 4.18593 5.35938C2.49686 4.13437 1.46874 3.0625 1.46874 3.0625C1.46874 3.0625 0.587489 11.4078 9.17968 18.9109C20.4156 28.7109 31.5781 34.8359 31.5781 34.8359L32.5328 33.3812C29.0812 31.3141 20.4156 25.8781 11.75 18.375Z" fill="#B0BFC1"/>
<path d="M32.6063 33.3812L33.4875 32.0031C15.5688 16.3844 15.2016 9.1875 15.2016 9.1875C10.575 9.26406 6.68282 7.12031 4.18594 5.35938C4.62657 8.42188 6.24219 13.5516 11.75 18.375C20.4156 25.8781 29.0813 31.3141 32.6063 33.3812Z" fill="#C9D1D3"/>
<path d="M37.8938 35.1422C38.5547 35.7547 38.4813 36.9031 37.6735 37.6688C36.8657 38.4344 35.6907 38.511 35.0298 37.8985C34.3688 37.286 34.4423 36.1375 35.2501 35.3719C35.9844 34.6063 37.2329 34.5297 37.8938 35.1422Z" fill="#C19A61"/>
<path d="M37.5266 35.2188C38.1141 35.7547 38.0407 36.75 37.3063 37.3625C36.6454 38.0516 35.6172 38.1281 35.0297 37.5156C34.4422 36.9797 34.5157 35.9844 35.25 35.3719C35.911 34.7594 36.9391 34.6063 37.5266 35.2188Z" fill="#DBB471"/>
<path d="M39.5093 36.5969C40.1703 37.2094 40.0969 38.3578 39.289 39.1234C38.4812 39.8891 37.3062 39.9656 36.6453 39.3531C35.9844 38.7406 36.0578 37.5922 36.8656 36.8266C37.6734 36.0609 38.8484 35.9844 39.5093 36.5969Z" fill="#C19A61"/>
<path d="M39.1422 36.5969C39.7297 37.1328 39.6563 38.1281 38.9219 38.7406C38.261 39.4297 37.2328 39.5063 36.6453 38.8938C36.0578 38.3578 36.1313 37.3625 36.8656 36.75C37.5266 36.1375 38.5547 36.061 39.1422 36.5969Z" fill="#DBB471"/>
<path d="M41.125 38.0516C41.7859 38.6641 41.7125 39.8125 40.9047 40.5781C40.0969 41.3437 38.9219 41.4203 38.2609 40.8078C37.6 40.1953 37.6734 39.0469 38.4812 38.2812C39.289 37.5156 40.464 37.3625 41.125 38.0516Z" fill="#C19A61"/>
<path d="M40.8313 38.0516C41.4188 38.5875 41.3454 39.5828 40.611 40.1953C39.95 40.8844 38.9219 40.9609 38.3344 40.3484C37.7469 39.8125 37.8204 38.8172 38.5547 38.2047C39.2157 37.5922 40.2438 37.5156 40.8313 38.0516Z" fill="#DBB471"/>
<path d="M42.814 39.4297C43.475 40.0422 43.4015 41.1906 42.5937 41.9563C41.7859 42.7219 40.6109 42.7984 39.95 42.1859C39.289 41.5734 39.3625 40.425 40.1703 39.6594C40.9047 38.8938 42.0797 38.8172 42.814 39.4297Z" fill="#C19A61"/>
<path d="M42.4469 39.5063C43.0344 40.0422 42.961 41.0375 42.2266 41.65C41.5656 42.3391 40.5375 42.4156 39.95 41.8031C39.3625 41.2672 39.436 40.2719 40.1703 39.6594C40.8313 38.9703 41.8594 38.8938 42.4469 39.5063Z" fill="#DBB471"/>
<path d="M44.7969 41.1906C42.4469 39.2 43.5484 40.5781 42.0797 42.1094C37.8203 46.7031 30.6234 39.8891 35.4703 35.9078C38.2609 33.6109 36.2781 30.625 34.8828 29.3234C34.0015 28.5578 34.6625 29.9359 32.0922 33.075C29.5219 36.2906 30.6969 41.3438 34.075 44.3297C37.6 47.3922 41.8594 45.4781 43.475 43.4109C44.65 42.0328 46.6328 42.7219 44.7969 41.1906" fill="#89664C"/>
<path d="M38.9219 44.4828C37.7469 44.4828 36.1313 44.1 34.8094 42.7984C33.2672 41.1906 32.6797 39.2 33.1203 37.2094C32.0922 39.4297 32.386 41.8031 34.075 43.4875C35.25 44.7125 36.7922 44.9422 37.8938 44.8656C38.8485 44.8656 39.8031 44.6359 40.6844 44.2531C40.0969 44.4828 39.5094 44.5594 38.9219 44.4828" fill="#DBB471"/>
</svg>
